<svg xmlns="http://www.w3.org/2000/svg" viewBox="0 0 64 64" fill="none">
<path
d="M32 4 56 18v28L32 60 8 46V18L32 4Z"
stroke="white"
stroke-width="4"
stroke-linejoin="round"
/>
<circle cx="32" cy="32" r="4" fill="white"/>

<path
d="M32 16
C36 24, 40 28, 48 32
C40 36, 36 40, 32 48
C28 40, 24 36, 16 32
C24 28, 28 24, 32 16Z"
stroke="white"
stroke-width="3"
stroke-linejoin="round"
/>

<path d="M32 12v12" stroke="white" stroke-width="3" stroke-linecap="round"/>
<path d="M32 40v12" stroke="white" stroke-width="3" stroke-linecap="round"/>
<path d="M12 32h12" stroke="white" stroke-width="3" stroke-linecap="round"/>
<path d="M40 32h12" stroke="white" stroke-width="3" stroke-linecap="round"/>

<circle cx="32" cy="32" r="12" stroke="white" stroke-width="3"/>

<path d="M20 18c-4 1-7 4-8 8" stroke="white" stroke-width="3" stroke-linecap="round"/>
<path d="M44 18c4 1 7 4 8 8" stroke="white" stroke-width="3" stroke-linecap="round"/>
<path d="M20 46c-4-1-7-4-8-8" stroke="white" stroke-width="3" stroke-linecap="round"/>
<path d="M44 46c4-1 7-4 8-8" stroke="white" stroke-width="3" stroke-linecap="round"/>
</svg>